<svg xmlns="http://www.w3.org/2000/svg" viewBox="0 0 1000 277.16"><defs><style>.cls-1{fill:#050012;}.cls-2{fill:#8830f9;}.cls-3{fill:#fa2fb5;}.cls-4{fill:#f7b103;}</style></defs><g id="Colour"><polygon class="cls-1" points="247.04 192.81 261.54 192.81 261.54 144.82 312.43 144.82 312.43 132.35 261.54 132.35 261.54 96.97 318.66 96.97 318.66 84.35 247.04 84.35 247.04 192.81"/><rect class="cls-1" x="330.71" y="84.35" width="13.92" height="108.46"/><path class="cls-1" d="M390.61,114.37a59.73,59.73,0,0,0-17.47,2.54,41.91,41.91,0,0,0-14.28,7.32l5.8,10.44a34.2,34.2,0,0,1,11-6A40.62,40.62,0,0,1,389,126.4q10.29,0,15.44,4.86t5.15,13.7v2.76h-22q-11.46,0-18.2,3t-9.71,8.12a21.92,21.92,0,0,0-3,11.31,20.35,20.35,0,0,0,3.48,11.67,23,23,0,0,0,9.94,8,36.33,36.33,0,0,0,15,2.9q10.59,0,17.55-4a22.45,22.45,0,0,0,7.68-7v11h13.2V145.54q0-15.79-8.56-23.49T390.61,114.37Zm10.51,64.23a26.35,26.35,0,0,1-13.7,3.48q-8,0-12.47-3.41a10.82,10.82,0,0,1-4.49-9.06,11.26,11.26,0,0,1,3.62-8.41q3.63-3.48,14.07-3.48h21.46v10.73A19.77,19.77,0,0,1,401.12,178.6Z"/><path class="cls-1" d="M782.09,128.89V116H768.75v76.85h13.92V154.53q0-12.61,6.52-19.28t17.69-6.67h1.53a10.83,10.83,0,0,1,1.66.14V115.24q-11,0-18.56,4.2A23.54,23.54,0,0,0,782.09,128.89Z"/><rect class="cls-1" x="822.13" y="84.35" width="13.92" height="108.46"/><path class="cls-1" d="M913.78,84.35v42.42a30.31,30.31,0,0,0-9.28-8A35.52,35.52,0,0,0,887,114.37,39.91,39.91,0,0,0,867,119.3,36.16,36.16,0,0,0,853.17,133a40.29,40.29,0,0,0-5.07,20.52,40.69,40.69,0,0,0,5.07,20.59A36.13,36.13,0,0,0,867,187.88,39.91,39.91,0,0,0,887,192.81a35.63,35.63,0,0,0,17.84-4.42,30.27,30.27,0,0,0,9.57-8.59v13H927.7V84.35Zm-3.26,83.45a24.08,24.08,0,0,1-9.28,9.49,27.6,27.6,0,0,1-26.32,0,24.62,24.62,0,0,1-9.28-9.49,28.55,28.55,0,0,1-3.48-14.28,28.09,28.09,0,0,1,3.48-14.29,25,25,0,0,1,9.28-9.35,27.67,27.67,0,0,1,26.32,0,24.45,24.45,0,0,1,9.28,9.35,28.69,28.69,0,0,1,3.4,14.29A29.16,29.16,0,0,1,910.52,167.8Z"/><circle class="cls-2" cx="717.41" cy="153.52" r="39.29"/><path class="cls-1" d="M485.46,177.44a16.41,16.41,0,0,1-10.88,3.62q-5.81,0-8.92-3.33t-3.11-9.57V126.55h22V115.09h-22V98.27L448.63,107v8.14H435.58v11.46h13.05v42.19q0,11.59,6.38,17.83t18,6.24a32.32,32.32,0,0,0,9.2-1.31,20.24,20.24,0,0,0,7.62-4.06Z"/><path class="cls-1" d="M540.49,177.44a16.41,16.41,0,0,1-10.88,3.62c-3.86,0-6.84-1.11-8.91-3.33s-3.12-5.41-3.12-9.57V126.55h22V115.09h-22V98.27L503.66,107v8.14H490.61v11.46h13.05v42.19q0,11.59,6.38,17.83t18,6.24a32.39,32.39,0,0,0,9.21-1.31,20.27,20.27,0,0,0,7.61-4.06Z"/><polygon class="cls-1" points="670.66 84.35 640.65 172.43 610.64 84.35 596.75 84.35 633.71 192.81 647.6 192.81 684.55 84.35 670.66 84.35"/><polygon class="cls-1" points="614.63 157.22 607.69 136.83 595.56 172.41 565.56 84.35 551.67 84.35 588.62 192.8 588.61 192.81 588.62 192.81 602.5 192.81 602.51 192.81 602.51 192.8 614.63 157.22"/><polygon class="cls-2" points="162.68 36.15 162.68 84.35 120.51 126.53 96.41 102.43 162.68 36.15"/><rect class="cls-3" x="79.36" y="109.49" width="34.08" height="34.08" transform="translate(-61.23 105.23) rotate(-45)"/><circle class="cls-3" cx="90.38" cy="210.89" r="18.08"/><polygon class="cls-4" points="120.51 126.53 96.41 150.63 186.78 241.01 186.78 192.81 120.51 126.53"/></g></svg>