<svg width="165" height="165" viewBox="0 0 165 165" fill="none" xmlns="http://www.w3.org/2000/svg">
<path d="M97.1838 160.73C134.045 154.048 162 121.788 162 83C162 39.3695 126.63 4 83 4C39.3695 4 4 39.3695 4 83C4 103.723 11.9794 122.583 25.0333 136.674C15.6216 124.817 10 109.815 10 93.5C10 55.1162 41.1162 24 79.5 24C117.884 24 149 55.1162 149 93.5C149 125.773 127.003 152.908 97.1838 160.73Z" fill="#0D2B45"/>
<path d="M138.856 98.1829C138.952 96.8009 139 95.4061 139 94C139 60.8629 112.137 34 79 34C45.8629 34 19 60.8629 19 94C19 127.137 45.8629 154 79 154C85.0082 154 90.8102 153.117 96.2832 151.473C93.9056 151.82 91.4738 152 89 152C61.3858 152 39 129.614 39 102C39 74.3858 61.3858 52 89 52C115.33 52 136.906 72.352 138.856 98.1829Z" fill="#0D2B45"/>
<path d="M91.5 148C115.524 148 135 128.524 135 104.5C135 80.4756 115.524 61 91.5 61C84.2542 61 77.4223 62.7716 71.4136 65.9051C75.0494 64.67 78.9465 64 83 64C102.882 64 119 80.1178 119 100C119 119.882 102.882 136 83 136C66.446 136 52.5016 124.827 48.297 109.61C50.8266 131.227 69.2045 148 91.5 148Z" fill="#0D2B45"/>
</svg>
